<svg width="40" height="40" viewBox="0 0 40 40" fill="none" xmlns="http://www.w3.org/2000/svg">
<path d="M29.0833 37.9163C27.1999 37.9163 25.2166 37.4663 23.1666 36.5997C21.1666 35.7497 19.1499 34.583 17.1833 33.1663C15.2333 31.733 13.3499 30.133 11.5666 28.383C9.79992 26.5997 8.19992 24.7163 6.78325 22.783C5.34992 20.783 4.19992 18.783 3.38325 16.8497C2.51659 14.783 2.08325 12.783 2.08325 10.8997C2.08325 9.59967 2.31659 8.36634 2.76659 7.21634C3.23325 6.03301 3.98325 4.93301 4.99992 3.98301C6.28325 2.71634 7.74992 2.08301 9.31659 2.08301C9.96659 2.08301 10.6333 2.23301 11.1999 2.49967C11.8499 2.79967 12.3999 3.24967 12.7999 3.84967L16.6666 9.29967C17.0166 9.78301 17.2833 10.2497 17.4666 10.7163C17.6833 11.2163 17.7999 11.7163 17.7999 12.1997C17.7999 12.833 17.6166 13.4497 17.2666 14.033C17.0166 14.483 16.6333 14.9663 16.1499 15.4497L15.0166 16.633C15.0333 16.683 15.0499 16.7163 15.0666 16.7497C15.2666 17.0997 15.6666 17.6997 16.4333 18.5997C17.2499 19.533 18.0166 20.383 18.7833 21.1663C19.7666 22.133 20.5833 22.8997 21.3499 23.533C22.2999 24.333 22.9166 24.733 23.2833 24.9163L23.2499 24.9997L24.4666 23.7997C24.9833 23.283 25.4833 22.8997 25.9666 22.6497C26.8833 22.083 28.0499 21.983 29.2166 22.4663C29.6499 22.6497 30.1166 22.8997 30.6166 23.2497L36.1499 27.183C36.7666 27.5997 37.2166 28.133 37.4833 28.7663C37.7333 29.3997 37.8499 29.983 37.8499 30.5663C37.8499 31.3663 37.6666 32.1663 37.3166 32.9163C36.9666 33.6663 36.5333 34.3163 35.9833 34.9163C35.0333 35.9663 33.9999 36.7163 32.7999 37.1997C31.6499 37.6663 30.3999 37.9163 29.0833 37.9163ZM9.31659 4.58301C8.39992 4.58301 7.54992 4.98301 6.73325 5.78301C5.96659 6.49967 5.43325 7.28301 5.09992 8.13301C4.74992 8.99967 4.58325 9.91634 4.58325 10.8997C4.58325 12.4497 4.94992 14.133 5.68325 15.8663C6.43325 17.633 7.48325 19.4663 8.81659 21.2997C10.1499 23.133 11.6666 24.9163 13.3333 26.5997C14.9999 28.2497 16.7999 29.783 18.6499 31.133C20.4499 32.4497 22.2999 33.5163 24.1333 34.283C26.9833 35.4997 29.6499 35.783 31.8499 34.8663C32.6999 34.5163 33.4499 33.983 34.1333 33.2163C34.5166 32.7997 34.8166 32.3497 35.0666 31.8163C35.2666 31.3997 35.3666 30.9663 35.3666 30.533C35.3666 30.2663 35.3166 29.9997 35.1833 29.6997C35.1333 29.5997 35.0333 29.4163 34.7166 29.1997L29.1833 25.2663C28.8499 25.033 28.5499 24.8663 28.2666 24.7497C27.8999 24.5997 27.7499 24.4497 27.1833 24.7997C26.8499 24.9663 26.5499 25.2163 26.2166 25.5497L24.9499 26.7997C24.2999 27.433 23.2999 27.583 22.5333 27.2997L22.0833 27.0997C21.3999 26.733 20.5999 26.1663 19.7166 25.4163C18.9166 24.733 18.0499 23.933 16.9999 22.8997C16.1833 22.0663 15.3666 21.183 14.5166 20.1997C13.7333 19.283 13.1666 18.4997 12.8166 17.8497L12.6166 17.3497C12.5166 16.9663 12.4833 16.7497 12.4833 16.5163C12.4833 15.9163 12.6999 15.383 13.1166 14.9663L14.3666 13.6663C14.6999 13.333 14.9499 13.0163 15.1166 12.733C15.2499 12.5163 15.2999 12.333 15.2999 12.1663C15.2999 12.033 15.2499 11.833 15.1666 11.633C15.0499 11.3663 14.8666 11.0663 14.6333 10.7497L10.7666 5.28301C10.5999 5.04967 10.3999 4.88301 10.1499 4.76634C9.88325 4.64967 9.59992 4.58301 9.31659 4.58301ZM23.2499 25.0163L22.9833 26.1497L23.4333 24.983C23.3499 24.9663 23.2833 24.983 23.2499 25.0163Z" fill="#292D32"/>
</svg>
