<svg width="40" height="40" viewBox="0 0 40 40" fill="none" xmlns="http://www.w3.org/2000/svg">
<path d="M28.3333 35.4163H11.6666C5.58325 35.4163 2.08325 31.9163 2.08325 25.833V14.1663C2.08325 8.08301 5.58325 4.58301 11.6666 4.58301H28.3333C34.4166 4.58301 37.9166 8.08301 37.9166 14.1663V25.833C37.9166 31.9163 34.4166 35.4163 28.3333 35.4163ZM11.6666 7.08301C6.89992 7.08301 4.58325 9.39967 4.58325 14.1663V25.833C4.58325 30.5997 6.89992 32.9163 11.6666 32.9163H28.3333C33.0999 32.9163 35.4166 30.5997 35.4166 25.833V14.1663C35.4166 9.39967 33.0999 7.08301 28.3333 7.08301H11.6666Z" fill="#292D32"/>
<path d="M19.9997 21.4499C18.5997 21.4499 17.1831 21.0166 16.0997 20.1333L10.883 15.9666C10.3497 15.5333 10.2497 14.7499 10.6831 14.2166C11.1164 13.6833 11.8997 13.5833 12.4331 14.0166L17.6497 18.1833C18.9164 19.2 21.0664 19.2 22.333 18.1833L27.5497 14.0166C28.083 13.5833 28.883 13.6666 29.2997 14.2166C29.733 14.7499 29.6497 15.55 29.0997 15.9666L23.883 20.1333C22.8164 21.0166 21.3997 21.4499 19.9997 21.4499Z" fill="#292D32"/>
</svg>
