<svg width="32" height="32" viewBox="0 0 32 32" fill="none" xmlns="http://www.w3.org/2000/svg">
<path d="M16.0365 0H15.9636C7.14714 0 0 7.14712 0 15.9636V16.0364C0 24.8529 7.14714 32 15.9636 32H16.0365C24.8529 32 32 24.8529 32 16.0364V15.9636C32 7.14712 24.8529 0 16.0365 0Z" fill="#001110"/>
<path d="M23.7351 11.5766V14.598C23.2071 14.5464 22.521 14.4265 21.762 14.1484C20.7709 13.7852 20.0332 13.2885 19.55 12.904V19.0107L19.5377 18.9916C19.5455 19.1127 19.55 19.236 19.55 19.3605C19.55 22.3931 17.0824 24.8618 14.0487 24.8618C11.0149 24.8618 8.54736 22.3931 8.54736 19.3605C8.54736 16.3279 11.0149 13.8581 14.0487 13.8581C14.3458 13.8581 14.6373 13.8816 14.922 13.9276V16.9052C14.6485 16.8077 14.3547 16.755 14.0487 16.755C12.6125 16.755 11.4432 17.9232 11.4432 19.3605C11.4432 20.7978 12.6125 21.966 14.0487 21.966C15.4848 21.966 16.6542 20.7966 16.6542 19.3605C16.6542 19.3067 16.653 19.2529 16.6497 19.1991V7.33203H19.6688C19.68 7.58765 19.6901 7.8455 19.7014 8.10112C19.7215 8.6045 19.9009 9.08771 20.2137 9.48346C20.5803 9.94872 21.1218 10.4891 21.8819 10.9207C22.5938 11.3232 23.262 11.497 23.7351 11.5788V11.5766Z" fill="white"/>
</svg>
