<svg width="32" height="32" viewBox="0 0 32 32" fill="none" xmlns="http://www.w3.org/2000/svg">
<path d="M31.9989 16.0005C31.9989 24.0814 26.0088 30.7621 18.2271 31.8462C17.4995 31.9471 16.7551 31.9998 15.9994 31.9998C15.1272 31.9998 14.2707 31.9303 13.4366 31.7958C5.81859 30.5693 0 23.9637 0 16.0005C0 7.16388 7.16393 0 16.0006 0C24.8372 0 32.0011 7.16388 32.0011 16.0005H31.9989Z" fill="#001110"/>
<path d="M18.2271 12.8481V16.3337H22.5389L21.8561 21.0289H18.2271V31.8465C17.4995 31.9474 16.7551 32 15.9994 32C15.1272 32 14.2707 31.9305 13.4366 31.796V21.0289H9.45996V16.3337H13.4366V12.069C13.4366 9.42315 15.5813 7.27734 18.2282 7.27734V7.27959C18.2361 7.27959 18.2428 7.27734 18.2506 7.27734H22.54V11.338H19.7372C18.9042 11.338 18.2282 12.014 18.2282 12.847L18.2271 12.8481Z" fill="white"/>
</svg>
