<svg width="32" height="32" viewBox="0 0 32 32" fill="none" xmlns="http://www.w3.org/2000/svg">
<path d="M16.0364 0H15.9636C7.14714 0 0 7.14712 0 15.9636V16.0364C0 24.8529 7.14714 32 15.9636 32H16.0364C24.8529 32 32 24.8529 32 16.0364V15.9636C32 7.14712 24.8529 0 16.0364 0Z" fill="#001110"/>
<path d="M20.9515 6.51074H11.0498C8.31428 6.51074 6.08887 8.73616 6.08887 11.4717V20.5303C6.08887 23.2658 8.31428 25.4912 11.0498 25.4912H20.9515C23.687 25.4912 25.9124 23.2658 25.9124 20.5303V11.4717C25.9124 8.73616 23.687 6.51074 20.9515 6.51074ZM7.83893 11.4717C7.83893 9.70144 9.27956 8.2608 11.0498 8.2608H20.9515C22.7217 8.2608 24.1624 9.70144 24.1624 11.4717V20.5303C24.1624 22.3005 22.7217 23.7412 20.9515 23.7412H11.0498C9.27956 23.7412 7.83893 22.3005 7.83893 20.5303V11.4717Z" fill="white"/>
<path d="M16.0005 20.6138C18.5443 20.6138 20.615 18.5442 20.615 15.9993C20.615 13.4543 18.5454 11.3848 16.0005 11.3848C13.4556 11.3848 11.386 13.4543 11.386 15.9993C11.386 18.5442 13.4556 20.6138 16.0005 20.6138ZM16.0005 13.1359C17.5802 13.1359 18.865 14.4208 18.865 16.0004C18.865 17.5801 17.5802 18.8648 16.0005 18.8648C14.4209 18.8648 13.1361 17.5801 13.1361 16.0004C13.1361 14.4208 14.4209 13.1359 16.0005 13.1359Z" fill="white"/>
<path d="M21.0421 12.1312C21.7271 12.1312 22.2855 11.574 22.2855 10.8879C22.2855 10.2017 21.7283 9.64453 21.0421 9.64453C20.356 9.64453 19.7988 10.2017 19.7988 10.8879C19.7988 11.574 20.356 12.1312 21.0421 12.1312Z" fill="white"/>
</svg>
